HIERARCHY
ROOT root
{
	OFFSET	0	13.1	24.9
	CHANNELS 6  Xposition Yposition Zposition Xrotation Yrotation Zrotation
	JOINT spine_1
	{
		OFFSET	0	9.99999	0
		CHANNELS 3  Xrotation Yrotation Zrotation
		JOINT spine_2
		{
			OFFSET	0	112	-10
			CHANNELS 3  Xrotation Yrotation Zrotation
			JOINT spine_3
			{
				OFFSET	0	206.5	19.3
				CHANNELS 3  Xrotation Yrotation Zrotation
				JOINT spine_4
				{
					OFFSET	0	110.4	14.6
					CHANNELS 3  Xrotation Yrotation Zrotation
					JOINT neck_1
					{
						OFFSET	0	71.8	-50.3
						CHANNELS 3  Xrotation Yrotation Zrotation
						JOINT neck_2
						{
							OFFSET	0	86.2	-25.8
							CHANNELS 3  Xrotation Yrotation Zrotation
							JOINT head_ee
							{
								OFFSET	0	179.8	-8.7
								CHANNELS 3  Xrotation Yrotation Zrotation
								End Site
								{
									OFFSET	1	0	0
								}
							}
						}
					}
					JOINT left_clavicle
					{
						OFFSET	-43.2	22.4	-70.8
						CHANNELS 3  Xrotation Yrotation Zrotation
						JOINT left_shoulder
						{
							OFFSET	-93.9	-5.79999	48.7
							CHANNELS 3  Xrotation Yrotation Zrotation
							JOINT left_elbow
							{
								OFFSET	-291.4	-30.8	15.2
								CHANNELS 3  Xrotation Yrotation Zrotation
								JOINT left_lowarm_twist
								{
									OFFSET	-110.7	-3.89999	13.6
									CHANNELS 3  Xrotation Yrotation Zrotation
									JOINT left_hand
									{
										OFFSET	-110.7	-3.89999	13.6
										CHANNELS 3  Xrotation Yrotation Zrotation
										JOINT left_ee
										{
											OFFSET	-80.8	-5.10001	12.1
											CHANNELS 3  Xrotation Yrotation Zrotation
											End Site
											{
												OFFSET	1	0	0
											}
										}
									}
								}
							}
						}
					}
					JOINT right_clavicle
					{
						OFFSET	43.2	22.4	-70.8
						CHANNELS 3  Xrotation Yrotation Zrotation
						JOINT right_shoulder
						{
							OFFSET	93.9	-5.79999	48.7
							CHANNELS 3  Xrotation Yrotation Zrotation
							JOINT right_elbow
							{
								OFFSET	291.4	-30.8	15.2
								CHANNELS 3  Xrotation Yrotation Zrotation
								JOINT right_lowarm_twist
								{
									OFFSET	110.7	-3.89999	13.6
									CHANNELS 3  Xrotation Yrotation Zrotation
									JOINT right_hand
									{
										OFFSET	110.7	-3.89999	13.6
										CHANNELS 3  Xrotation Yrotation Zrotation
										JOINT right_ee
										{
											OFFSET	80.8	-5.10001	12.1
											CHANNELS 3  Xrotation Yrotation Zrotation
											End Site
											{
												OFFSET	1	0	0
											}
										}
									}
								}
							}
						}
					}
				}
			}
		}
	}
	JOINT left_hip
	{
		OFFSET	-82.8	-127.5	0.300001
		CHANNELS 3  Xrotation Yrotation Zrotation
		JOINT left_knee
		{
			OFFSET	-28.2	-396.7	2.2
			CHANNELS 3  Xrotation Yrotation Zrotation
			JOINT left_ankle
			{
				OFFSET	-11.7	-411.3	35.4
				CHANNELS 3  Xrotation Yrotation Zrotation
				JOINT left_toes
				{
					OFFSET	0	-60	-88.6
					CHANNELS 3  Xrotation Yrotation Zrotation
					JOINT left_foot_ee
					{
						OFFSET	-22.5	-16.5	-42.2
						CHANNELS 3  Xrotation Yrotation Zrotation
						End Site
						{
							OFFSET	1	0	0
						}
					}
				}
			}
		}
	}
	JOINT right_hip
	{
		OFFSET	82.8	-127.5	0.300001
		CHANNELS 3  Xrotation Yrotation Zrotation
		JOINT right_knee
		{
			OFFSET	28.2	-396.7	2.2
			CHANNELS 3  Xrotation Yrotation Zrotation
			JOINT right_ankle
			{
				OFFSET	11.7	-411.3	35.4
				CHANNELS 3  Xrotation Yrotation Zrotation
				JOINT right_toes
				{
					OFFSET	0	-60	-88.6
					CHANNELS 3  Xrotation Yrotation Zrotation
					JOINT right_foot_ee
					{
						OFFSET	22.5	-16.5	-42.2
						CHANNELS 3  Xrotation Yrotation Zrotation
						End Site
						{
							OFFSET	1	0	0
						}
					}
				}
			}
		}
	}
}
MOTION
Frames: 13
Frame Time: 0.02
2242.98 748.368 -1610.17 8.81196 54.9735 -15.7568 -2.82392 0.664573 5.15338 -2.80921 0.335754 5.18511 -2.76052 -1.0104 5.09702 -2.7967 -0.193877 5.19234 0.74666 17.2008 -3.27182 1.85134 33.2403 -2.18548 -0.0 0.0 -0.0 -0.163254 13.3742 1.30934 -11.6064 -22.3706 46.0656 1.30155 -32.8104 0.38321 -5.98701 -0.249022 0.723343 -1.00354 12.0276 -1.39224 -0.0 0.0 -0.0 12.902 26.5023 -25.391 -13.3062 41.0645 -59.4327 0.805861 21.7618 -0.154908 -61.8877 5.51841 -5.15606 -2.79651 -12.7348 12.4731 0.0 0.0 0.0 -11.5959 48.0246 0.200506 -7.32548 0.231569 1.09963 3.29965 -8.02181 -0.498846 2.03126 -0.0 -0.0 -0.0 0.0 -0.0 -3.9269 26.3879 1.23879 -13.3464 -0.315561 -2.01925 17.6669 8.98538 2.53923 -5.963 0.0 0.0 0.0 0.0 0.0 
2236.07 748.017 -1611.24 9.3001 55.9891 -15.8192 -2.82235 0.665781 5.16911 -2.80755 0.335963 5.20089 -2.75864 -1.01411 5.11235 -2.79504 -0.195128 5.20805 -0.0845238 17.3151 -2.92985 0.900087 33.3174 -1.55365 -0.0 0.0 -0.0 -0.124564 14.1308 1.46266 -10.2075 -22.2582 45.5307 1.37156 -34.1916 0.421855 -6.73322 -0.285328 0.811588 -1.21128 11.8655 -2.77938 -0.0 0.0 -0.0 12.755 26.489 -25.0542 -13.7584 41.0032 -59.5392 0.792147 21.4253 -0.149861 -61.8645 5.5155 -5.15543 -2.74846 -12.2626 12.4115 0.0 0.0 0.0 -11.9126 48.0827 0.524382 -6.82603 0.220268 1.02382 3.491 -8.33564 -0.528326 2.42209 -0.0 -0.0 -0.0 0.0 -0.0 -3.87215 26.402 1.04336 -14.448 -0.320449 -2.1882 17.6635 8.71635 2.53535 -5.67185 0.0 0.0 0.0 0.0 0.0 
2230.86 745.802 -1612.99 9.96104 56.8818 -16.597 -2.77875 0.661666 5.14293 -2.7641 0.333515 5.1745 -2.71592 -1.00586 5.08697 -2.75197 -0.190973 5.1817 -0.661392 17.4024 -2.69892 0.241584 33.3917 -1.12186 -0.0 0.0 -0.0 0.03283 14.6565 1.77829 -8.87984 -22.2977 45.2955 1.43089 -35.3278 0.455684 -7.25531 -0.311413 0.873049 -1.36162 11.7517 -3.78442 -0.0 0.0 -0.0 12.7436 26.4852 -25.0285 -13.9347 41.0323 -59.7404 0.782638 21.191 -0.146406 -61.8503 5.51372 -5.15505 -2.71129 -11.9177 12.3514 0.0 0.0 0.0 -12.1956 48.1159 0.825599 -6.4793 0.212033 0.971247 3.5433 -8.61076 -0.536931 2.67971 -0.0 -0.0 -0.0 0.0 -0.0 -3.81392 26.4111 0.885814 -15.2163 -0.321935 -2.30607 17.6934 8.54205 2.53707 -5.46819 0.0 0.0 0.0 0.0 0.0 
2225.58 749.195 -1614.72 10.7021 57.0853 -17.7393 -2.8315 0.734188 5.08433 -2.81722 0.409606 5.12061 -2.76241 -0.922255 5.05368 -2.79802 -0.113645 5.13567 -1.06594 17.4198 -2.61218 -0.218435 33.4248 -0.904631 -0.0 0.0 -0.0 0.0896876 15.6705 1.98389 -7.67374 -22.0914 45.133 1.49653 -36.5485 0.494209 -7.62148 -0.330042 0.916013 -1.48587 11.6718 -4.6106 -0.0 0.0 -0.0 12.7362 26.4831 -25.0116 -14.2355 41.0062 -59.5866 0.770145 20.8822 -0.141921 -61.8441 5.51294 -5.15488 -2.68536 -11.6758 12.3093 0.0 0.0 0.0 -12.2855 47.9781 0.96002 -6.28347 0.207242 0.941577 3.3648 -8.89775 -0.510938 2.83697 -0.0 -0.0 -0.0 0.0 -0.0 -3.76821 26.4157 0.798805 -15.7339 -0.322045 -2.38549 17.7203 8.3467 2.53817 -5.32827 0.0 0.0 0.0 0.0 0.0 
2216.03 743.854 -1610.57 9.58569 56.2682 -17.031 -2.75903 0.917711 5.05099 -2.74504 0.594873 5.09897 -2.67363 -0.72904 5.08157 -2.70964 0.0815519 5.13282 -1.3315 17.4303 -2.56838 -0.519587 33.4549 -0.77615 -0.0 0.0 -0.0 0.475953 16.6776 2.69815 -6.32825 -22.0489 45.7618 1.5648 -37.7785 0.535452 -7.88353 -0.343542 0.946688 -1.59855 11.6147 -5.35426 -0.0 0.0 -0.0 12.6482 26.5623 -24.7999 -14.6344 41.0107 -59.2061 0.756131 20.5342 -0.136965 -61.9223 5.52274 -5.15699 -2.6602 -11.433 12.2721 0.0 0.0 0.0 -8.29062 47.5267 -1.99507 -6.07875 0.202125 0.910577 3.05224 -9.27211 -0.464858 2.8948 -0.0 -0.0 -0.0 0.0 -0.0 -6.08581 26.3782 2.51151 -16.9396 -0.319519 -2.57045 17.7493 7.9553 2.53719 -5.23031 0.0 0.0 0.0 0.0 0.0 
2206.61 738.618 -1606.24 8.05357 56.1209 -15.2203 -2.35469 1.00481 4.79841 -2.34216 0.697806 4.85245 -2.26733 -0.531285 4.87344 -2.30037 0.244099 4.89618 -2.31048 16.9242 -3.69502 -1.58167 33.5639 -1.74218 -0.0 0.0 -0.0 0.783345 19.9573 3.47758 -4.76127 -21.2633 46.7549 1.99861 -44.7086 0.821972 -11.7829 -0.560884 1.39557 -2.18076 15.1061 -7.34399 -0.0 0.0 -0.0 12.6168 26.6561 -24.7163 -14.9252 41.0067 -58.2988 0.747055 20.3079 -0.133799 -61.5046 5.47044 -5.14555 -2.32718 -9.69528 10.9837 0.0 0.0 0.0 -4.44362 46.0626 -2.77333 -5.76932 0.19418 0.863755 5.6536 -9.54629 -0.855359 1.71974 -0.0 -0.0 -0.0 0.0 -0.0 -7.91869 26.7549 3.96092 -13.6502 -0.317234 -2.06584 16.0993 2.79489 2.27205 -6.70166 0.0 0.0 0.0 0.0 0.0 
2200.95 743.189 -1600.93 7.60276 57.8959 -15.1605 -2.27386 1.03025 4.7024 -2.26186 0.729284 4.75825 -2.18631 -0.470404 4.7907 -2.2182 0.291201 4.80489 -3.03982 15.7476 -4.17356 -2.4534 31.8816 -2.16729 -0.0 0.0 -0.0 0.247531 25.8101 3.28939 -6.93593 -18.0748 48.7543 3.58826 -60.6233 2.09824 -17.7685 -0.952733 2.0535 -2.51839 16.4709 -8.75187 -0.0 0.0 -0.0 12.546 26.45 -24.5786 -15.5494 40.8426 -57.6773 0.740408 20.1418 -0.131501 -60.4101 5.3338 -5.11376 -2.01823 -7.33042 10.1135 0.0 0.0 0.0 -3.37281 45.0247 -2.50026 -7.01642 0.224654 1.05271 9.66711 -12.7324 -1.46989 2.03421 -0.0 -0.0 -0.0 0.0 -0.0 -8.33377 25.1646 4.88686 -11.3227 -0.298122 -1.70926 16.1262 -2.26537 2.24859 -9.11799 0.0 0.0 0.0 0.0 0.0 
2189.63 745.229 -1608.23 8.52627 59.7675 -16.4304 -2.35954 1.10479 4.64584 -2.3479 0.807265 4.70654 -2.26638 -0.388425 4.75933 -2.29779 0.367222 4.76101 -3.51227 14.2119 -4.58408 -3.0401 29.4394 -2.66953 -0.0 0.0 -0.0 0.00677072 24.4814 2.83414 -10.7877 -9.51757 51.222 5.78215 -70.7248 4.10518 -22.2143 -1.28725 2.5141 -1.92056 12.0525 -7.19843 -0.0 0.0 -0.0 13.0107 26.501 -25.642 -15.8007 40.8356 -57.4051 0.717283 19.5612 -0.123648 -59.4235 5.21114 -5.08287 -1.34848 -3.68604 7.37527 0.0 0.0 0.0 0.52651 42.3703 -4.05803 -12.0747 0.305881 1.82438 15.595 -13.8419 -2.32954 2.14311 -0.0 -0.0 -0.0 0.0 -0.0 -8.59249 23.5414 4.35759 -9.51607 -0.273312 -1.43317 19.3139 -1.81043 2.65691 -12.2603 0.0 0.0 0.0 0.0 0.0 
2182.06 735.323 -1610.5 7.13156 61.7984 -14.8285 -2.31282 1.15025 4.53857 -2.30177 0.859437 4.60238 -2.21816 -0.307823 4.67166 -2.24834 0.43302 4.66174 -3.38561 13.5255 -4.57776 -2.93634 28.1708 -2.79194 -0.0 0.0 -0.0 -0.072618 21.6407 2.41114 -13.7128 -4.01877 52.8627 8.39687 -76.4357 6.61642 -24.8154 -1.49928 2.77122 -1.21506 8.80577 -4.18153 -0.0 0.0 -0.0 13.3813 26.7239 -26.4716 -14.8226 41.194 -56.8334 0.702535 19.1887 -0.118755 -58.561 5.10436 -5.05413 -0.88198 -1.14339 5.39764 0.0 0.0 0.0 2.99616 39.9608 -4.98652 -15.6459 0.322077 2.37199 21.4719 -13.8901 -3.11526 3.29563 -0.0 -0.0 -0.0 0.0 -0.0 -9.15806 23.518 4.23486 -8.33616 -0.252413 -1.25332 25.0578 0.0269676 3.36008 -13.7925 0.0 0.0 0.0 0.0 0.0 
2171.72 726.329 -1612.18 8.17056 62.6857 -15.7903 -2.29472 1.18954 4.54678 -2.28367 0.898119 4.61306 -2.19669 -0.271107 4.69168 -2.22708 0.472429 4.67573 -3.22852 13.0747 -4.55792 -2.78893 27.3211 -2.8731 -0.0 0.0 -0.0 -0.109103 19.6474 2.13135 -15.9678 -0.274407 54.2028 11.6115 -80.0714 9.76539 -26.6356 -1.65451 2.94535 -0.710876 6.5474 -1.9053 -0.0 0.0 -0.0 13.6426 26.8814 -27.0582 -14.0441 41.4867 -56.3056 0.684858 18.74 -0.11301 -57.9678 5.03116 -5.03343 -0.56157 0.633986 4.02663 0.0 0.0 0.0 4.65124 38.2398 -5.49499 -18.4531 0.31084 2.8025 25.5988 -13.9705 -3.63 4.1004 -0.0 -0.0 -0.0 0.0 -0.0 -9.53323 23.5101 3.83693 -7.21889 -0.229213 -1.08344 29.0821 1.44355 3.82324 -14.865 0.0 0.0 0.0 0.0 0.0 
2163.62 731.999 -1610.95 7.67 62.4725 -14.8672 -2.19842 1.22793 4.53282 -2.18749 0.937324 4.60157 -2.09782 -0.222031 4.69063 -2.12813 0.520728 4.66697 -3.01427 12.7799 -4.54564 -2.57208 26.7578 -2.95325 -0.0 0.0 -0.0 -0.0215256 18.2544 2.10318 -18.1732 2.2829 55.5242 9.25547 -77.6443 7.45319 -28.0821 -1.7818 3.08019 -0.250073 4.13997 0.0864058 -0.0 0.0 -0.0 13.8344 26.9941 -27.4901 -13.1894 41.8623 -55.8631 0.692463 18.9333 -0.115466 -57.5531 4.98011 -5.01851 -0.471054 0.734619 3.46327 0.0 0.0 0.0 5.81729 36.208 -5.40328 -21.5255 0.274392 3.27246 29.5611 -11.9096 -4.03956 5.35844 -0.0 -0.0 -0.0 0.0 -0.0 -9.96245 23.566 3.58411 -5.22919 -0.179706 -0.782128 32.162 2.44248 4.15846 -15.5967 0.0 0.0 0.0 0.0 0.0 
2148.84 725.307 -1613.06 8.40005 61.6163 -15.0234 -2.0527 1.29576 4.43719 -2.04232 1.01108 4.51045 -1.94915 -0.115855 4.6207 -1.97841 0.614572 4.5812 -2.48348 12.6107 -4.69758 -1.9964 26.5254 -3.26718 -0.0 0.0 -0.0 -0.000450493 17.2878 2.02561 -19.7627 4.046 56.5155 7.35712 -74.6166 5.60954 -29.1224 -1.87543 3.17517 0.113808 2.55857 1.82889 -0.0 0.0 -0.0 14.067 27.0693 -28.0231 -12.1157 42.3116 -55.791 0.700737 19.1432 -0.118165 -57.2398 4.94161 -5.00699 -0.422256 0.800276 3.16448 0.0 0.0 0.0 6.84731 34.0983 -5.27572 -23.6538 0.234391 3.59659 31.9534 -10.44 -4.26487 6.14033 -0.0 -0.0 -0.0 0.0 -0.0 -13.0149 23.1671 4.69243 -5.21851 -0.179412 -0.780515 34.3814 3.15831 4.38931 -16.0049 0.0 0.0 0.0 0.0 0.0 
2132.74 725.348 -1608.76 10.1093 61.6268 -16.9131 -1.84327 1.09464 4.41241 -1.83281 0.811933 4.47295 -1.75718 -0.285292 4.53696 -1.78563 0.434064 4.52517 -1.42408 12.8648 -4.47329 -0.849608 26.7181 -3.25592 -0.0 0.0 -0.0 0.527134 16.6491 2.77502 -20.722 4.11448 57.3506 4.8537 -67.3934 3.23769 -30.2982 -1.98333 3.28047 0.521089 1.47694 4.09017 -0.0 0.0 -0.0 14.2106 26.9687 -28.3725 -9.85984 43.027 -56.2855 0.73323 19.9621 -0.12904 -56.7968 4.88729 -4.99034 -0.742083 0.270353 5.07943 0.0 0.0 0.0 7.66303 27.1076 -5.11235 -28.9095 0.084286 4.38893 32.234 -9.24791 -4.26934 6.69518 -0.0 -0.0 -0.0 0.0 -0.0 -15.5626 22.7813 6.04851 -6.43759 -0.211022 -0.964928 34.4844 3.46492 4.40309 -16.2899 0.0 0.0 0.0 0.0 0.0 
